HIERARCHY
ROOT Hips
{
	OFFSET 0.00000 0.00000 0.00000
	CHANNELS 6 Xposition Yposition Zposition Zrotation Yrotation Xrotation 
	JOINT LHipJoint
	{
		OFFSET 0 0 0
		CHANNELS 3 Zrotation Yrotation Xrotation
		JOINT LeftHip
		{
			OFFSET 1.76014 -1.80163 0.38499
			CHANNELS 3 Zrotation Yrotation Xrotation
			JOINT LeftKnee
			{
				OFFSET 2.46817 -6.78126 0.00000
				CHANNELS 3 Zrotation Yrotation Xrotation
				JOINT LeftAnkle
				{
					OFFSET 2.79348 -7.67503 0.00000
					CHANNELS 3 Zrotation Yrotation Xrotation
					JOINT LeftToe
					{
						OFFSET 0.09421 -0.25885 1.91403
						CHANNELS 3 Zrotation Yrotation Xrotation
						End Site
						{
							OFFSET 0.00000 -0.00000 0.97975
						}
					}
				}
			}
		}
	}
	JOINT RHipJoint
	{
		OFFSET 0 0 0
		CHANNELS 3 Zrotation Yrotation Xrotation
		JOINT RightHip
		{
			OFFSET -1.77926 -1.80163 0.38499
			CHANNELS 3 Zrotation Yrotation Xrotation
			JOINT RightKnee
			{
				OFFSET -2.51996 -6.92353 0.00000
				CHANNELS 3 Zrotation Yrotation Xrotation
				JOINT RightAnkle
				{
					OFFSET -2.76109 -7.58603 0.00000
					CHANNELS 3 Zrotation Yrotation Xrotation
					JOINT RightToe
					{
						OFFSET -0.08067 -0.22163 1.86812
						CHANNELS 3 Zrotation Yrotation Xrotation
						End Site
						{
							OFFSET -0.00000 -0.00000 0.95558
						}
					}
				}
			}
		}
	}
	JOINT lowerback
	{
		OFFSET 0 0 0
		CHANNELS 3 Zrotation Yrotation Xrotation
		JOINT Chest
		{
			OFFSET 0.05537 1.92033 -0.03713
			CHANNELS 3 Zrotation Yrotation Xrotation
			JOINT Chest2
			{
				OFFSET 0.04452 1.90073 0.10860
				CHANNELS 3 Zrotation Yrotation Xrotation
				JOINT lowerneck
				{
					OFFSET 0 0 0
					CHANNELS 3 Zrotation Yrotation Xrotation
					JOINT Neck
					{
						OFFSET 0.00903 1.74649 0.02074
						CHANNELS 3 Zrotation Yrotation Xrotation
						JOINT Head
						{
							OFFSET -0.08608 1.67844 -0.12081
							CHANNELS 3 Zrotation Yrotation Xrotation
							End Site
							{
								OFFSET -0.03521 1.83380 -0.05059
							}
						}
					}
				}
				JOINT LeftCollar
				{
					OFFSET 0 0 0
					CHANNELS 3 Zrotation Yrotation Xrotation
					JOINT LeftShoulder
					{
						OFFSET 3.28197 0.84325 -0.19106
CHANNELS 3 Zrotation Xrotation Yrotation
						JOINT LeftElbow
						{
OFFSET 0 -5.243180 -0.000000
CHANNELS 3 Zrotation Xrotation Yrotation
							JOINT LeftWrist
							{
OFFSET 0 -2.989990 0.000000
CHANNELS 3 Zrotation Xrotation Yrotation
								JOINT lhand
								{
									OFFSET 0 0 0
CHANNELS 3 Zrotation Xrotation Yrotation
									JOINT LFingers
									{
OFFSET 0 -0.726740 0.000000
CHANNELS 3 Zrotation Xrotation Yrotation
										End Site
										{
OFFSET 0 -0.585920 0.000000
										}
									}
								}
								JOINT LThumb
								{
OFFSET 0 0.000000 0.000000
CHANNELS 3 Zrotation Xrotation Yrotation
									End Site
									{
OFFSET 0 -0.594870 0.594870
									}
								}
							}
						}
					}
				}
				JOINT RightCollar
				{
					OFFSET 0 0 0
					CHANNELS 3 Zrotation Yrotation Xrotation
					JOINT RightShoulder
					{
						OFFSET -3.30963 0.78377 0.14264
CHANNELS 3 Zrotation Xrotation Yrotation
						JOINT RightElbow
						{
OFFSET 0 -5.370450 0.000000
CHANNELS 3 Zrotation Xrotation Yrotation
							JOINT RightWrist
							{
OFFSET 0 -2.927920 0.000000
CHANNELS 3 Zrotation Xrotation Yrotation
								JOINT rhand
								{
									OFFSET 0 0 0
CHANNELS 3 Zrotation Xrotation Yrotation
									JOINT RFingers
									{
OFFSET 0 -0.784500 0.000000
CHANNELS 3 Zrotation Xrotation Yrotation
										End Site
										{
OFFSET 0 -0.632480 0.000000
										}
									}
								}
								JOINT RThumb
								{
OFFSET 0 0.000000 0.000000
CHANNELS 3 Zrotation Xrotation Yrotation
									End Site
									{
OFFSET 0 -0.642140 0.642140
									}
								}
							}
						}
					}
				}
			}
		}
	}
}
MOTION
Frames: 11
Frame Time: 0.008333333333333333
0.482000 16.081500 0.347600 -0.357300 3.320100 19.908700 0.000000 0.000000 0.000000 -12.813100 -6.841200 -53.115000 10.796400 17.834000 62.118500 1.658300 -9.162300 -23.083000 1.166100 -6.854900 -19.286100 0.000000 0.000000 0.000000 18.042700 -5.811200 -57.929200 -10.675200 -17.772400 61.722100 -0.759300 14.337400 -17.294300 -0.016900 0.838400 -2.304100 1.458000 -1.560600 5.071500 3.251200 -1.701000 -6.055700 2.857100 -0.801000 -9.199700 3.383500 -1.771800 18.507600 -7.045200 -2.960200 -16.702900 -2.562300 -0.880300 -8.408700 -0.000000 0.000000 0.000000 21.325600 45.825900 -50.155800 141.583300 -47.103400 102.729800 -34.829000 -69.658500 -39.817800 0.000000 0.000000 0.000000 -7.125000 0.000000 0.000000 -73.447700 55.536500 29.960800 -0.000000 0.000000 0.000000 -20.781000 45.541200 38.830800 -148.210700 -42.378500 -107.401400 50.130100 -28.337300 0.324100 0.000000 0.000000 0.000000 7.125000 0.000000 -0.000000 43.867100 16.452200 47.580500
0.506109 16.119673 0.363324 -0.326799 3.464286 20.467759 0.000000 0.000000 0.000000 -13.011187 -6.651026 -53.460757 10.628350 17.748345 61.568626 1.570146 -10.169580 -22.525251 0.842382 -5.853914 -16.361312 0.000000 0.000000 0.000000 18.243988 -6.211940 -58.355110 -10.496740 -17.679838 61.136008 -0.690345 14.596139 -16.829844 -0.023922 0.997920 -2.743015 1.906216 -1.654219 5.333928 3.275232 -1.745221 -6.850150 2.684475 -0.843766 -10.250949 3.154275 -1.768457 16.707869 -6.931325 -2.987367 -16.039682 -2.474294 -0.934869 -7.865936 0.000000 0.000000 0.000000 19.361646 45.968677 -48.282694 141.142118 -47.378530 102.405831 -36.746945 -68.939428 -39.240963 0.000000 0.000000 0.000000 -7.125000 0.000000 0.000000 -74.047473 54.838634 29.050457 0.000000 0.000000 0.000000 -19.625532 45.959310 37.967870 -148.168395 -42.412510 -107.372940 51.138387 -27.506364 0.156386 0.000000 0.000000 0.000000 7.125000 0.000000 0.000000 43.703575 15.033269 49.702355
0.520951 16.148380 0.418023 -0.072841 3.370211 20.691465 0.000000 0.000000 0.000000 -13.403703 -6.764984 -53.167629 10.477207 17.669589 61.071754 1.538816 -10.395486 -22.325285 0.707776 -5.364202 -14.953388 0.000000 0.000000 0.000000 17.877088 -6.071698 -58.230625 -10.425567 -17.642316 60.901458 -0.706764 14.369033 -16.878160 -0.044908 1.367802 -3.761417 1.916816 -1.774308 5.364984 3.196934 -1.874768 -8.047441 2.673260 -0.899358 -11.623788 2.681518 -1.550196 13.682835 -6.606008 -2.592932 -12.775975 -2.306065 -0.854711 -6.252207 0.000000 0.000000 0.000000 19.375746 46.275663 -48.567786 140.627329 -47.693771 102.026096 -37.334471 -69.005929 -38.087609 0.000000 0.000000 0.000000 -7.125000 0.000000 0.000000 -72.986265 54.155479 26.798647 0.000000 0.000000 0.000000 -19.588843 45.495549 38.399656 -148.108734 -42.460361 -107.332622 52.749279 -26.000514 -0.031124 0.000000 0.000000 0.000000 7.125000 0.000000 0.000000 43.444990 12.596847 53.183465
0.529605 16.142192 0.489733 -0.168659 3.207534 20.643878 0.000000 0.000000 0.000000 -13.337993 -6.730383 -52.867273 10.499589 17.681336 61.145475 1.623346 -9.573853 -22.858219 1.009655 -6.393336 -17.929977 0.000000 0.000000 0.000000 17.786579 -5.747998 -57.802190 -10.453678 -17.657235 60.994294 -0.758136 14.281487 -17.264694 -0.047801 1.411453 -3.881731 1.964651 -1.834022 5.686246 3.226287 -1.893951 -9.355635 2.769330 -0.892105 -13.348117 1.732937 -1.700043 7.555355 -5.619496 -2.513529 -5.702155 -2.029120 -1.065337 -3.297155 0.000000 0.000000 0.000000 18.562812 47.973562 -47.428544 140.289515 -47.897489 101.775869 -37.499230 -68.744063 -37.863790 0.000000 0.000000 0.000000 -7.125000 0.000000 0.000000 -72.817414 54.010576 26.365732 0.000000 0.000000 0.000000 -18.424841 46.327915 37.148640 -147.570221 -42.887203 -106.967635 54.191020 -25.953723 0.001362 0.000000 0.000000 0.000000 7.125000 0.000000 0.000000 43.256734 10.368485 56.251346
0.520169 16.143833 0.569193 -0.022031 2.729981 20.917531 0.000000 0.000000 0.000000 -13.660410 -6.212061 -52.852150 10.471219 17.666405 61.051954 1.649744 -9.735516 -23.051434 1.007172 -6.385842 -17.908104 0.000000 0.000000 0.000000 17.479065 -5.299303 -57.690768 -10.440118 -17.650034 60.949492 -0.751642 14.489284 -17.287966 -0.023196 0.983309 -2.702899 1.473397 -1.971500 6.370511 2.956958 -2.130059 -10.393673 2.885349 -0.946439 -15.014709 0.347079 -3.132980 -9.365517 -4.108471 -3.772417 11.006720 -1.643400 -2.095084 4.903587 0.000000 0.000000 0.000000 14.541042 51.626138 -42.021419 141.036891 -47.443428 102.328420 -36.809972 -67.444492 -37.675953 0.000000 0.000000 0.000000 -7.125000 0.000000 0.000000 -72.113468 54.059534 25.935039 0.000000 0.000000 0.000000 -14.006585 48.528703 32.742309 -147.802745 -42.703879 -107.125583 55.529435 -23.737101 -0.082646 0.000000 0.000000 0.000000 7.125000 0.000000 0.000000 43.073834 7.898531 59.385640
0.514806 16.175075 0.682496 0.409872 2.539706 21.498081 0.000000 0.000000 0.000000 -14.318578 -6.004979 -52.631708 10.254582 17.550540 60.336049 1.699383 -9.441217 -23.379717 1.181154 -6.897396 -19.411694 0.000000 0.000000 0.000000 17.206439 -5.627434 -57.824008 -10.343295 -17.598403 60.629648 -0.724000 15.002805 -17.260001 -0.015469 0.803878 -2.209309 1.111652 -2.315281 6.252090 2.536509 -2.695008 -11.730091 2.803324 -1.176201 -16.582849 -0.699850 -5.332153 -15.112566 -2.109502 -6.738493 13.973563 -1.241966 -3.472095 6.688549 0.000000 0.000000 0.000000 11.110555 54.249060 -37.311311 141.419366 -47.206131 102.609602 -37.046966 -68.423569 -37.931527 0.000000 0.000000 0.000000 -7.125000 0.000000 0.000000 -72.594309 54.138154 26.461718 0.000000 0.000000 0.000000 -10.474063 50.505180 28.412609 -147.807568 -42.700049 -107.128884 56.204540 -24.189658 0.130982 0.000000 0.000000 0.000000 7.125000 0.000000 0.000000 43.035392 6.893028 60.702056
0.496710 16.184400 0.776513 0.245488 1.918219 21.340586 0.000000 0.000000 0.000000 -14.339347 -5.223736 -52.105323 10.199693 17.520640 60.153846 1.736427 -9.701781 -23.646191 1.107208 -6.685525 -18.786918 0.000000 0.000000 0.000000 17.297835 -5.317902 -57.137544 -10.300406 -17.575379 60.487637 -0.765610 15.107974 -17.630264 -0.037323 1.246317 -3.426749 0.907446 -2.554322 5.889603 2.594742 -3.053761 -12.425003 3.080341 -1.301366 -17.202973 -0.276894 -5.412718 -15.442549 -2.319962 -6.905409 11.113579 -1.333441 -3.552931 5.803120 0.000000 0.000000 0.000000 10.758583 53.947850 -37.455374 140.642385 -47.684645 102.037233 -38.389498 -69.562580 -37.471106 0.000000 0.000000 0.000000 -7.125000 0.000000 0.000000 -72.924422 53.633010 25.646451 0.000000 0.000000 0.000000 -10.313639 50.419553 28.326197 -147.711022 -42.776392 -107.063294 57.012608 -24.146118 0.084056 0.000000 0.000000 0.000000 7.125000 0.000000 0.000000 42.959054 5.208829 62.691762
0.470215 16.154999 0.844978 0.070644 1.045051 21.532416 0.000000 0.000000 0.000000 -14.195049 -4.800459 -52.254154 10.319255 17.585519 60.550198 1.826519 -9.175977 -24.235904 1.213779 -6.988685 -19.681919 0.000000 0.000000 0.000000 17.204718 -4.421833 -57.181710 -10.412590 -17.635459 60.858721 -0.783047 15.190918 -17.798030 -0.024096 1.001334 -2.752488 0.550679 -2.680783 4.927527 2.663888 -3.290383 -13.022556 3.379977 -1.361591 -17.293149 0.068001 -5.158798 -15.744552 -3.011883 -6.534442 11.303239 -1.584481 -3.414672 5.882317 0.000000 0.000000 0.000000 14.209597 53.475551 -41.986535 140.276980 -47.904924 101.766543 -37.590475 -69.847422 -37.413778 0.000000 0.000000 0.000000 -7.125000 0.000000 0.000000 -72.317030 53.766984 25.474755 0.000000 0.000000 0.000000 -12.057593 50.111201 30.554012 -147.538159 -42.912269 -106.945779 57.359040 -24.819335 0.360103 0.000000 0.000000 0.000000 7.125000 0.000000 0.000000 42.965967 4.863415 63.179005
0.457311 16.117831 0.872646 0.188569 0.374188 21.338536 0.000000 0.000000 0.000000 -14.351823 -4.686391 -52.070855 10.468352 17.664942 61.042500 1.909979 -8.357237 -24.788814 1.406768 -7.502336 -21.212309 0.000000 0.000000 0.000000 16.896901 -4.171037 -57.195715 -10.591719 -17.729411 61.448327 -0.810187 15.258909 -18.033925 -0.054994 1.507813 -4.147440 0.157291 -2.914075 4.405558 2.695561 -3.675720 -13.094323 3.671777 -1.500374 -16.986556 -0.136968 -5.179591 -15.963101 -3.414558 -6.447092 12.095429 -1.697490 -3.417229 6.166153 0.000000 0.000000 0.000000 14.584384 53.085191 -42.397028 140.100423 -48.010332 101.635434 -37.769374 -70.216068 -37.338798 0.000000 0.000000 0.000000 -7.125000 0.000000 0.000000 -72.344374 53.692668 25.338049 0.000000 0.000000 0.000000 -12.989240 49.639843 31.392920 -147.559439 -42.895606 -106.960272 56.840909 -24.992716 0.355530 0.000000 0.000000 0.000000 7.125000 0.000000 0.000000 43.006232 5.926749 61.934182
0.463825 16.100835 0.906560 0.095931 -0.918668 21.072015 0.000000 0.000000 0.000000 -14.675667 -3.680792 -51.791756 10.542595 17.703895 61.286929 1.985494 -8.091652 -25.292522 1.425167 -7.548955 -21.352275 0.000000 0.000000 0.000000 16.645766 -3.679550 -56.929987 -10.663584 -17.766479 61.684121 -0.757605 15.874356 -17.866974 -0.045824 1.380960 -3.797518 0.015547 -2.808485 4.250194 2.640714 -3.562960 -13.019048 3.649825 -1.443274 -16.785536 -0.209384 -5.276075 -15.811685 -3.802031 -6.499299 12.531264 -1.819948 -3.480384 6.268640 0.000000 0.000000 0.000000 13.612161 53.468892 -41.039482 140.390164 -47.837100 101.850455 -37.395987 -69.607967 -37.146132 0.000000 0.000000 0.000000 -7.125000 0.000000 0.000000 -71.854207 53.671019 24.929854 0.000000 0.000000 0.000000 -12.129744 50.118696 30.311398 -147.740804 -42.752851 -107.083624 56.828141 -24.787981 0.279431 0.000000 0.000000 0.000000 7.125000 0.000000 0.000000 42.997249 5.850422 62.000051
0.462250 16.089894 0.894628 0.341786 -1.668992 21.200902 0.000000 0.000000 0.000000 -15.149611 -3.239085 -52.048659 10.557688 17.711766 61.336519 1.995422 -8.003759 -25.359899 1.433616 -7.570525 -21.416914 0.000000 0.000000 0.000000 16.247549 -3.425346 -57.339943 -10.741217 -17.806128 61.938384 -0.659569 16.423216 -17.338768 -0.012173 0.707488 -1.944244 -0.402791 -2.864056 4.290570 2.643623 -3.698057 -12.890842 3.901990 -1.459684 -16.611048 -0.406969 -5.149728 -15.929384 -3.836269 -6.270540 12.890918 -1.791076 -3.384345 6.414616 0.000000 0.000000 0.000000 12.945963 53.396132 -40.143808 140.380990 -47.842524 101.843749 -37.302398 -69.578138 -37.408365 0.000000 0.000000 0.000000 -7.125000 0.000000 0.000000 -72.115596 53.823107 25.442914 0.000000 0.000000 0.000000 -11.518499 50.215961 29.342272 -147.814354 -42.694707 -107.133471 56.561687 -24.909653 0.306340 0.000000 0.000000 0.000000 7.125000 0.000000 0.000000 43.025227 6.422749 61.329056
